<?xml version="1.0" standalone="no"?>
<!DOCTYPE svg PUBLIC "-//W3C//DTD SVG 20010904//EN"
 "http://www.w3.org/TR/2001/REC-SVG-20010904/DTD/svg10.dtd">
<svg version="1.0" xmlns="http://www.w3.org/2000/svg"
 width="128.000000pt" height="128.000000pt" viewBox="0 0 128.000000 128.000000"
 preserveAspectRatio="xMidYMid meet">

<g transform="translate(0.000000,128.000000) scale(0.100000,-0.100000)"
fill="#267cb5" stroke="none">
<path d="M872 1149 c2 -64 2 -64 5 -11 2 28 8 52 13 52 14 0 280 -268 280
-282 0 -6 -46 -57 -103 -113 -56 -56 -109 -111 -117 -121 -15 -18 -14 -18 15
0 17 10 72 61 122 114 67 71 93 104 93 123 0 25 -37 71 -120 145 -19 17 -57
57 -85 87 -27 31 -62 59 -77 62 l-28 7 2 -63z"/>
<path d="M620 1067 c-22 -11 -25 -19 -27 -77 -2 -71 2 -71 12 2 8 59 25 70
111 70 81 1 75 10 -8 15 -39 2 -73 -2 -88 -10z"/>
<path d="M865 1070 c-3 -5 -1 -10 4 -10 6 0 11 5 11 10 0 6 -2 10 -4 10 -3 0
-8 -4 -11 -10z"/>
<path d="M798 1063 c6 -2 18 -2 25 0 6 3 1 5 -13 5 -14 0 -19 -2 -12 -5z"/>
<path d="M950 1026 c0 -9 5 -16 10 -16 6 0 10 4 10 9 0 6 -4 13 -10 16 -5 3
-10 -1 -10 -9z"/>
<path d="M983 1004 c4 -7 0 -15 -9 -18 -8 -3 -12 -2 -9 3 6 10 -44 -1 -65 -14
-6 -4 -22 -8 -36 -10 -19 -2 -22 0 -13 11 15 18 5 18 -34 -3 -24 -12 -29 -12
-20 -2 9 12 0 14 -57 15 l-68 1 2 -39 c0 -21 5 -38 10 -38 5 0 2 -8 -5 -17
-12 -15 -12 -16 4 -10 11 4 17 1 17 -9 0 -8 -7 -17 -15 -20 -8 -4 -15 -12 -15
-20 0 -10 9 -8 38 7 20 12 29 14 20 6 -10 -8 -18 -16 -18 -19 0 -11 85 4 122
22 21 10 21 10 5 -3 -16 -14 -16 -15 4 -20 12 -3 33 2 47 11 19 12 24 13 18 3
-7 -11 -4 -13 12 -9 12 4 22 2 22 -3 0 -5 7 -9 15 -9 13 0 14 -4 5 -20 -18
-34 -1 -22 61 40 56 57 73 80 47 64 -7 -5 -9 -2 -5 8 3 10 -11 31 -41 59 -25
24 -43 39 -39 33z m41 -43 c3 -5 0 -11 -7 -14 -8 -3 -14 1 -14 9 0 16 13 19
21 5z m36 -35 c0 -2 -7 -7 -16 -10 -8 -3 -12 -2 -9 4 6 10 25 14 25 6z"/>
<path d="M140 913 c0 -5 29 -8 65 -8 36 0 65 3 65 8 0 4 -29 7 -65 7 -36 0
-65 -3 -65 -7z"/>
<path d="M280 908 c0 -4 7 -8 15 -8 8 0 15 4 15 8 0 5 -7 9 -15 9 -8 0 -15 -4
-15 -9z"/>
<path d="M380 909 c-31 -4 -13 -6 59 -7 57 -1 102 1 98 4 -8 9 -102 10 -157 3z"/>
<path d="M550 910 c0 -5 5 -10 11 -10 5 0 7 5 4 10 -3 6 -8 10 -11 10 -2 0 -4
-4 -4 -10z"/>
<path d="M588 875 c4 -40 2 -45 -15 -45 -10 0 -25 -6 -32 -12 -11 -10 -13 -10
-7 0 11 18 -25 15 -53 -5 -14 -9 -21 -12 -18 -6 12 19 -23 23 -56 7 -29 -13
-30 -13 -13 1 18 14 18 15 2 15 -9 0 -27 -5 -38 -11 -16 -8 -19 -8 -13 1 6 9
2 9 -15 0 -18 -9 -24 -9 -30 0 -5 9 -13 9 -27 1 -11 -5 -23 -8 -26 -4 -4 3
-27 6 -52 7 -43 1 -56 -6 -35 -19 6 -4 8 -11 4 -16 -3 -5 0 -8 8 -7 7 2 12 -3
10 -10 -2 -10 4 -11 19 -7 16 5 19 4 14 -6 -6 -9 -3 -11 10 -5 15 5 16 4 5 -9
-15 -18 0 -20 33 -4 20 9 20 9 4 -4 -22 -18 -22 -30 1 -19 26 14 48 3 26 -12
-15 -12 -14 -15 14 -35 30 -21 33 -21 64 -5 l33 17 -23 -25 c-18 -20 -20 -27
-9 -31 8 -3 20 -1 28 5 11 8 10 9 -3 4 -25 -8 -22 1 3 15 13 7 19 7 15 1 -3
-6 -2 -14 4 -17 8 -5 7 -11 -1 -21 -15 -18 -5 -18 30 0 25 13 31 13 50 0 11
-8 27 -12 34 -8 9 5 9 4 1 -5 -6 -7 -24 -14 -40 -16 -26 -2 -27 -2 -9 11 10 8
15 14 9 14 -5 0 -19 -9 -32 -18 -21 -16 -22 -20 -8 -31 11 -9 20 -10 29 -4 6
6 25 13 41 16 l28 5 -28 -23 c-28 -23 -29 -24 -10 -42 10 -10 16 -12 12 -6 -5
9 -2 11 8 7 9 -3 13 -10 10 -15 -9 -15 13 -10 53 12 l38 21 -25 -21 c-14 -11
-28 -21 -32 -21 -5 0 -8 -4 -8 -10 0 -5 12 -10 27 -10 30 0 217 136 207 151
-3 5 3 6 12 2 11 -4 15 -3 10 5 -3 6 6 18 22 28 24 14 29 23 29 55 0 22 -2 39
-4 39 -2 0 -22 -9 -43 -20 -41 -21 -52 -10 -20 18 13 11 12 12 -5 4 -11 -5
-31 -9 -45 -8 -14 2 -36 -4 -49 -12 -22 -13 -81 -25 -81 -16 0 2 12 10 28 18
31 17 23 19 -29 7 -37 -9 -43 -2 -25 27 6 10 1 11 -21 6 l-28 -6 25 19 c22 16
25 24 22 76 -2 31 -7 57 -11 57 -5 0 -6 -20 -3 -45z m182 -142 c0 -1 -8 -7
-18 -12 -13 -7 -19 -6 -19 2 0 7 9 13 19 13 10 0 18 -1 18 -3z m-290 -167 c-7
-7 -13 -7 -20 0 -6 6 -3 10 10 10 13 0 16 -4 10 -10z"/>
<path d="M87 898 c-15 -12 -17 -49 -18 -363 -1 -335 2 -385 22 -385 5 0 9 -4
9 -10 0 -5 -9 -10 -19 -10 -11 0 -23 -4 -26 -10 -3 -5 -1 -10 5 -10 6 0 8 -4
5 -10 -4 -6 1 -7 11 -3 12 5 15 3 9 -6 -6 -10 -3 -11 15 -1 15 8 20 8 16 1 -7
-10 16 -17 39 -11 30 8 92 3 104 -8 9 -9 17 -10 26 -2 7 6 24 13 36 15 23 4
23 4 5 -10 -17 -13 -12 -14 41 -11 33 1 65 6 73 11 9 5 11 4 6 -3 -8 -13 16
-17 28 -4 11 11 56 10 49 -2 -4 -5 6 -7 25 -3 20 4 32 2 35 -6 2 -8 11 -7 30
6 30 20 41 22 31 6 -5 -8 -1 -8 14 0 14 7 23 8 27 1 4 -7 12 -7 24 0 10 5 21
7 25 3 8 -9 135 -10 149 -1 6 3 20 2 30 -4 11 -5 17 -6 14 -1 -3 5 3 9 13 9
10 0 16 -5 13 -10 -4 -6 1 -6 13 -2 10 4 60 9 109 11 103 4 121 7 137 23 9 9
9 12 -1 12 -7 0 -9 5 -6 10 9 14 -42 17 -98 6 -25 -5 -27 -4 -13 10 33 32 32
26 27 472 -2 178 -10 233 -24 163 -4 -20 -25 -44 -69 -78 -77 -60 -94 -71 -83
-53 6 10 4 11 -11 6 -43 -18 -54 -18 -54 -2 0 9 -4 16 -9 16 -4 0 -6 -11 -3
-25 2 -14 8 -22 13 -19 5 3 9 -3 9 -13 0 -10 -16 -29 -35 -42 -19 -13 -43 -31
-54 -40 -11 -10 -32 -26 -46 -37 -15 -10 -32 -24 -39 -29 -38 -35 -196 -112
-196 -95 0 5 12 16 28 24 23 13 24 15 7 17 -11 1 -29 0 -40 -1 -16 -2 -17 1
-7 13 10 12 5 19 -26 41 -39 27 -72 37 -38 11 27 -20 16 -38 -81 -139 -86 -89
-101 -110 -57 -81 14 9 34 18 45 20 16 3 17 1 9 -16 -14 -25 1 -25 59 2 l45
20 -19 -21 c-17 -19 -14 -26 10 -20 6 1 24 4 42 5 17 1 37 6 44 10 8 6 10 4 4
-5 -6 -9 -4 -11 5 -5 7 4 29 10 48 12 31 3 34 2 22 -12 -11 -14 -10 -14 13 -6
15 6 33 8 41 5 8 -3 24 -1 35 6 12 6 21 7 21 3 0 -4 41 -9 90 -10 50 -2 90 0
90 3 0 10 -28 34 -40 34 -6 0 -8 5 -4 11 3 6 -1 10 -12 9 -33 -4 -37 0 -23 17
13 15 11 16 -16 11 -28 -6 -29 -5 -10 9 19 14 18 15 -12 8 -34 -7 -53 8 -27
23 15 8 15 10 0 15 -10 4 -15 3 -11 -3 10 -16 -1 -11 -16 7 -10 11 -10 14 -1
9 7 -4 12 -1 12 8 0 16 -21 22 -34 9 -3 -4 -14 -8 -23 -9 -23 -4 58 73 91 86
21 8 32 7 43 -1 16 -14 1 -35 -17 -24 -9 6 -9 10 1 16 8 5 9 9 3 9 -20 0 -23
-12 -7 -36 11 -17 19 -21 31 -15 23 13 44 -10 23 -26 -15 -11 -14 -12 2 -13
10 0 15 -4 12 -10 -4 -6 4 -9 17 -7 18 1 22 -2 20 -17 -3 -14 1 -18 16 -14 11
3 19 0 19 -8 0 -7 -5 -10 -11 -7 -6 4 -5 -1 3 -10 7 -9 17 -14 22 -11 5 3 8 1
7 -4 -2 -5 11 -23 27 -38 17 -16 42 -45 57 -64 15 -19 30 -31 34 -28 4 4 -7
23 -25 43 -22 25 -31 46 -32 73 -1 20 -2 51 -3 67 -1 17 1 37 6 47 5 11 2 18
-9 22 -14 6 -14 8 1 24 22 25 22 56 0 48 -14 -5 -15 -4 -4 9 11 13 10 14 -5 9
-17 -7 -17 -6 0 20 15 22 16 29 5 39 -7 7 -10 7 -7 2 3 -6 -3 -11 -14 -11 -19
0 -18 1 3 19 13 10 16 15 8 11 -10 -5 -9 0 4 14 21 24 16 27 -17 11 -20 -9
-21 -9 -4 5 10 8 17 16 15 18 -2 1 18 22 43 46 l47 42 7 -46 c9 -64 3 -514 -8
-514 -4 0 -6 -4 -3 -8 6 -11 3 -11 -111 -16 -59 -2 -90 0 -87 6 4 6 -5 3 -19
-7 -17 -11 -27 -13 -32 -5 -3 6 -11 7 -17 4 -6 -4 -29 -8 -52 -9 -22 -1 -35 0
-28 2 6 3 12 9 12 14 0 5 -10 5 -24 -1 -13 -5 -33 -6 -44 -3 -11 2 -28 0 -39
-5 -12 -7 -25 -7 -37 0 -13 7 -26 7 -42 -1 -17 -8 -24 -8 -24 0 0 6 -7 9 -15
6 -8 -4 -17 -2 -20 3 -4 6 -14 6 -27 -1 -15 -8 -19 -8 -13 1 4 7 -6 5 -24 -4
-20 -11 -31 -13 -31 -5 0 7 -9 9 -22 6 -13 -3 -33 -8 -46 -11 -13 -3 -20 -1
-17 5 8 12 -11 12 -36 -1 -10 -6 -19 -7 -19 -2 0 13 -50 12 -74 0 -13 -7 -16
-7 -12 1 5 7 -5 10 -26 10 -47 -2 -58 0 -58 9 0 4 45 53 99 108 55 54 97 102
94 107 -2 4 0 7 4 7 11 0 88 72 88 82 0 4 9 15 20 24 19 15 19 15 -6 1 -34
-20 -64 -5 -35 18 27 20 12 32 -23 18 -24 -9 -28 -8 -27 5 2 9 9 18 17 20 11
3 11 1 -1 -8 -10 -8 -11 -10 -2 -8 19 5 11 23 -9 22 -11 0 -15 5 -11 14 4 11
-2 13 -29 8 -22 -5 -29 -4 -21 2 11 7 9 10 -7 15 -15 3 -19 10 -15 21 4 11 2
16 -7 14 -8 -2 -13 2 -12 9 2 6 -6 14 -16 18 -22 7 -88 68 -113 105 -10 14
-18 43 -18 67 0 33 5 46 26 62 29 23 10 30 -19 9z m41 -199 c28 -27 32 -36 26
-65 -4 -23 -2 -34 6 -34 7 0 9 -8 5 -20 -4 -12 -2 -20 5 -20 8 0 8 -6 -1 -21
-7 -15 -8 -19 0 -15 7 5 9 1 5 -8 -3 -9 -10 -16 -14 -16 -12 0 -9 -59 3 -67 6
-3 7 -1 3 5 -5 8 -1 10 10 5 13 -5 15 -3 9 7 -6 9 -4 11 4 5 9 -5 7 -13 -8
-29 -25 -27 -27 -40 -4 -32 24 9 35 -15 15 -32 -9 -7 -11 -10 -3 -6 10 5 12 3
7 -5 -5 -7 -13 -10 -20 -8 -8 3 -12 -8 -13 -34 0 -26 3 -37 11 -32 11 7 3 -5
-51 -68 l-30 -37 -7 52 c-9 76 -7 506 2 506 5 0 23 -14 40 -31z m72 -385 c0
-8 -19 -13 -24 -6 -3 5 1 9 9 9 8 0 15 -2 15 -3z"/>
<path d="M610 760 c-9 -6 -10 -10 -3 -10 6 0 15 5 18 10 8 12 4 12 -15 0z"/>
</g>
</svg>
