<?xml version="1.0" standalone="no"?>
<!DOCTYPE svg PUBLIC "-//W3C//DTD SVG 20010904//EN"
 "http://www.w3.org/TR/2001/REC-SVG-20010904/DTD/svg10.dtd">
<svg version="1.0" xmlns="http://www.w3.org/2000/svg"
 width="128.000000pt" height="128.000000pt" viewBox="0 0 128.000000 128.000000"
 preserveAspectRatio="xMidYMid meet">

<g transform="translate(0.000000,128.000000) scale(0.100000,-0.100000)"
fill="#267cb5" stroke="none">
<path d="M814 1142 c-38 -37 -105 -104 -147 -150 l-78 -82 -70 1 c-38 1 -73
-1 -76 -5 -4 -3 32 -6 78 -6 83 0 85 0 102 -30 10 -16 22 -30 28 -30 14 0 11
12 -12 36 -13 14 -19 29 -15 41 3 11 62 74 130 140 68 67 126 128 129 135 11
27 27 -17 27 -75 l0 -57 118 1 c64 0 124 -2 134 -6 22 -9 30 -60 26 -181 -2
-81 -6 -105 -18 -110 -26 -11 -220 -20 -230 -10 -13 13 -27 -1 -27 -29 0 -29
4 -31 29 -8 12 11 41 18 81 21 l62 4 -33 -31 c-51 -47 -125 -96 -142 -92 -8 1
-23 10 -33 19 -9 8 -20 12 -23 9 -4 -3 8 -14 25 -25 l31 -19 -28 -22 c-15 -12
-55 -43 -90 -69 -74 -55 -124 -97 -102 -86 8 4 29 17 46 30 24 18 34 20 44 11
9 -8 11 -8 7 -1 -9 15 12 23 36 15 17 -6 17 -8 3 -20 -21 -18 -10 -34 14 -21
29 16 46 12 24 -6 -10 -8 -12 -12 -4 -8 12 6 13 5 3 -7 -10 -12 -8 -17 8 -27
11 -7 24 -10 30 -6 6 3 9 -2 7 -12 -2 -11 2 -18 9 -17 7 2 10 -3 7 -11 -4 -11
0 -13 18 -9 17 3 19 2 9 -5 -11 -8 -7 -16 20 -44 64 -63 121 -130 116 -135 -3
-2 -18 -6 -34 -9 -15 -2 -38 -6 -50 -8 -12 -2 -20 0 -18 4 3 4 -6 8 -20 8 -16
0 -22 -5 -18 -12 4 -6 1 -6 -9 2 -15 12 -73 11 -190 -1 -26 -3 -50 -1 -53 4
-4 5 -14 5 -25 -1 -24 -13 -40 -13 -20 0 24 15 -5 12 -47 -5 -31 -13 -34 -13
-23 0 14 17 7 19 -20 5 -10 -6 -21 -6 -24 -1 -5 7 -62 8 -91 0 -5 -1 -22 1
-37 5 -15 5 -35 3 -48 -4 -15 -8 -20 -8 -16 -1 9 14 0 14 -26 0 -16 -8 -19 -8
-13 1 6 9 3 9 -13 1 -14 -7 -23 -8 -27 -1 -4 7 -13 6 -27 -1 -11 -6 -18 -7
-14 -1 9 15 -69 13 -115 -3 -21 -8 -43 -14 -47 -15 -4 0 -7 -6 -7 -12 0 -7 12
-13 27 -13 14 1 24 -3 21 -8 -3 -5 4 -6 17 -2 16 5 20 4 15 -5 -5 -9 -1 -8 16
1 34 18 53 21 40 5 -8 -10 -4 -12 17 -11 16 1 34 5 42 10 9 6 11 4 5 -5 -6
-10 1 -12 34 -6 30 5 40 3 36 -5 -6 -8 -2 -8 13 0 25 13 45 14 38 2 -8 -12 80
-4 106 10 18 10 20 9 15 -5 -8 -21 7 -20 41 1 26 17 27 17 12 -2 -13 -16 -13
-18 0 -10 18 11 120 13 113 3 -4 -8 23 -13 42 -8 6 2 25 2 44 1 18 -1 40 4 49
11 12 10 14 10 8 1 -4 -7 -3 -13 3 -13 5 0 13 5 16 10 3 6 12 10 18 10 7 0 6
-4 -3 -11 -12 -9 -11 -10 5 -4 30 10 65 13 60 5 -6 -10 86 -7 102 3 19 12 54
17 48 8 -4 -8 70 -6 120 3 11 2 23 4 27 5 5 0 7 7 5 14 -3 16 -45 28 -76 20
-17 -4 -22 -2 -17 6 4 6 2 11 -4 11 -6 0 -8 4 -5 10 3 5 0 10 -7 10 -8 1 -5 7
7 16 19 14 20 25 17 289 l-3 275 23 0 c27 1 54 19 57 40 7 48 8 182 1 224 -11
71 -22 76 -159 73 l-116 -2 -5 65 c-4 48 -9 66 -21 67 -8 2 -47 -27 -85 -65z
m296 -674 c0 -145 -4 -269 -9 -276 -6 -10 -16 -4 -39 23 -25 27 -32 45 -33 78
0 23 -2 54 -4 69 -2 15 0 30 5 33 11 6 1 45 -12 45 -5 0 -6 6 -1 13 4 6 8 26
9 44 1 29 -1 31 -17 22 -25 -13 -24 3 1 19 26 16 26 36 1 29 -23 -6 -18 18 5
27 8 3 14 12 14 21 0 18 -5 18 -30 5 -15 -8 -17 -6 -13 8 5 17 101 101 116
102 4 0 7 -118 7 -262z"/>
<path d="M768 978 c-41 -47 -45 -54 -31 -65 15 -11 15 -13 0 -19 -15 -5 -14
-8 2 -25 13 -14 29 -18 57 -17 33 3 39 0 37 -16 -1 -15 4 -17 30 -11 18 4 42
8 54 10 12 2 27 6 34 11 7 4 10 3 6 -3 -8 -13 16 -24 31 -14 7 4 37 4 68 1 36
-4 57 -2 60 4 6 17 -1 115 -9 122 -4 4 -1 14 6 22 8 10 -3 7 -31 -7 -43 -22
-56 -19 -24 6 12 10 8 10 -15 -2 -30 -14 -37 -13 -34 8 2 14 -113 4 -139 -12
-19 -12 -22 -13 -15 -2 6 11 4 13 -7 9 -12 -5 -14 0 -12 23 5 43 -15 36 -68
-23z m337 -28 c3 -5 2 -10 -4 -10 -5 0 -13 5 -16 10 -3 6 -2 10 4 10 5 0 13
-4 16 -10z"/>
<path d="M113 913 c-12 -2 -26 -10 -32 -17 -6 -7 -11 -138 -12 -359 -1 -310 1
-350 16 -373 9 -14 19 -23 22 -21 2 3 4 7 2 9 -1 2 3 14 11 28 10 21 10 23 -1
13 -35 -34 -37 -19 -39 262 0 151 3 275 7 275 4 0 21 -12 37 -26 27 -24 29
-31 30 -104 1 -64 4 -76 16 -72 12 5 13 3 4 -9 -6 -8 -14 -26 -16 -42 -5 -24
-3 -27 16 -21 l21 7 -20 -23 c-11 -13 -14 -20 -7 -16 13 8 17 -6 5 -18 -15
-14 -11 -35 5 -29 14 5 13 2 -3 -17 l-20 -23 30 19 c21 14 27 15 20 4 -5 -8
-17 -21 -27 -28 -18 -13 -18 -14 -1 -29 17 -14 17 -14 0 -9 -10 3 -16 2 -13
-3 3 -4 -3 -24 -13 -44 l-19 -37 29 17 c16 10 73 64 127 121 118 125 110 117
92 107 -13 -8 -13 -7 -1 8 11 14 11 17 0 17 -10 1 -9 4 3 14 24 18 12 26 -26
20 -30 -5 -30 -5 -11 11 20 17 20 17 -5 10 -22 -7 -23 -6 -11 9 12 14 11 16
-8 16 -11 0 -21 5 -21 11 0 7 -9 9 -21 6 -14 -4 -17 -2 -11 6 7 8 5 16 -4 25
-8 7 -14 10 -14 6 0 -4 -8 3 -19 14 -10 12 -21 22 -24 22 -3 0 -27 19 -53 43
-53 48 -74 89 -74 146 0 52 22 64 112 64 37 0 65 3 62 6 -6 7 -109 9 -141 4z"/>
<path d="M270 909 c0 -5 11 -9 25 -9 14 0 25 2 25 4 0 2 -11 6 -25 8 -14 3
-25 1 -25 -3z"/>
<path d="M350 909 c-22 -6 -20 -7 13 -8 38 -1 47 3 25 11 -7 3 -24 1 -38 -3z"/>
<path d="M805 840 c-3 -6 1 -7 9 -4 18 7 21 14 7 14 -6 0 -13 -4 -16 -10z"/>
<path d="M156 820 c-8 -14 13 -45 35 -51 13 -3 23 -10 22 -15 -1 -5 14 -9 32
-9 19 1 32 -2 29 -7 -4 -5 -12 -7 -20 -4 -8 3 -11 0 -7 -9 4 -12 9 -12 26 -3
20 10 21 10 8 -6 -13 -15 -12 -16 12 -7 18 7 28 7 33 -1 4 -6 3 -8 -3 -5 -5 3
-10 0 -10 -7 0 -11 6 -11 34 1 33 13 34 13 23 -7 -10 -19 -9 -20 7 -12 13 7
22 6 31 -4 10 -11 7 -16 -15 -29 -16 -9 -19 -13 -8 -10 11 4 31 9 45 11 l25 4
-28 -21 c-39 -30 -23 -44 21 -18 20 13 34 19 29 14 -4 -5 1 -17 10 -28 17 -18
17 -19 1 -31 -27 -20 -9 -27 23 -10 20 10 29 11 29 3 0 -6 7 -8 16 -5 9 3 12
2 9 -5 -4 -6 -13 -8 -19 -6 -7 3 -13 -1 -13 -9 0 -8 6 -13 14 -10 7 3 13 1 13
-5 0 -6 7 -6 19 1 11 5 24 10 30 10 19 0 12 -16 -14 -30 -29 -16 -25 -27 10
-27 16 0 44 16 73 41 26 23 62 53 80 65 23 16 32 29 29 42 -3 10 2 20 12 24
15 6 14 7 -1 16 -12 7 -25 6 -40 -1 -22 -11 -22 -11 -3 5 11 8 24 14 31 11 6
-2 11 2 11 9 0 10 -5 11 -18 4 -29 -15 -36 -10 -12 10 27 23 20 34 -13 19 -19
-9 -28 -8 -43 6 -11 10 -26 15 -33 11 -7 -4 -2 3 12 14 14 11 30 21 35 21 6 0
3 -4 -5 -10 -12 -8 -12 -10 4 -16 14 -5 15 -9 4 -16 -11 -8 -10 -9 1 -6 19 5
22 30 6 52 -12 16 -16 16 -49 2 l-36 -15 17 26 17 26 -32 -17 c-29 -15 -31
-15 -25 0 5 14 3 15 -18 4 -22 -12 -23 -12 -10 3 12 16 11 16 -24 1 -41 -17
-59 -11 -30 10 17 12 16 13 -6 10 -13 -1 -28 -3 -32 -3 -5 -1 -6 -5 -3 -9 2
-4 -4 -8 -15 -8 -11 0 -18 5 -15 11 2 6 -12 10 -34 10 -21 0 -36 -3 -34 -6 2
-4 -2 -9 -8 -12 -18 -5 -49 4 -43 13 3 4 -11 4 -30 0 -19 -4 -37 -4 -40 0 -5
9 -125 9 -129 0z m294 -5 c0 -2 -10 -9 -22 -15 -22 -11 -22 -10 -4 4 21 17 26
19 26 11z"/>
<path d="M825 801 c-3 -5 -1 -12 5 -16 5 -3 10 1 10 9 0 18 -6 21 -15 7z"/>
<path d="M912 665 c0 -16 2 -22 5 -12 2 9 2 23 0 30 -3 6 -5 -1 -5 -18z"/>
<path d="M446 601 c-3 -5 2 -15 11 -22 14 -12 16 -12 8 0 -6 11 -4 13 10 7 15
-5 16 -4 5 9 -14 17 -26 19 -34 6z"/>
<path d="M443 461 l28 -18 -65 -74 c-36 -41 -77 -86 -91 -101 -14 -15 -25 -29
-25 -30 0 -13 58 -4 93 13 l42 22 -20 -22 -19 -22 24 5 c14 3 36 8 50 11 20 6
22 5 10 -5 -12 -9 -10 -11 12 -6 15 3 29 2 33 -3 3 -6 17 -6 34 -1 16 4 32 6
34 3 3 -2 15 1 27 7 18 10 21 9 15 0 -6 -10 3 -11 41 -6 27 4 54 6 59 6 92 -9
185 -9 185 1 0 6 -9 13 -20 16 -11 3 -17 9 -14 14 6 11 -44 32 -57 23 -5 -3
-9 0 -9 5 0 6 4 11 10 11 5 0 7 7 3 16 -3 8 -12 13 -19 10 -8 -3 -22 -9 -31
-12 -16 -5 -16 -5 -1 5 23 15 12 54 -14 48 -16 -5 -17 -3 -7 9 14 17 -2 19
-19 2 -6 -6 -15 -9 -19 -5 -4 4 -1 13 5 19 19 19 14 28 -12 18 -13 -5 -26 -6
-29 -4 -3 3 -16 0 -29 -7 -23 -13 -59 -20 -91 -20 -10 0 -30 -4 -43 -9 -30
-12 -31 2 -1 24 l22 16 -28 -6 c-21 -5 -26 -3 -22 9 6 15 -37 57 -59 57 -6 0
2 -8 17 -19z"/>
</g>
</svg>
