<?xml version="1.0" standalone="no"?>
<!DOCTYPE svg PUBLIC "-//W3C//DTD SVG 20010904//EN"
 "http://www.w3.org/TR/2001/REC-SVG-20010904/DTD/svg10.dtd">
<svg version="1.0" xmlns="http://www.w3.org/2000/svg"
 width="128.000000pt" height="128.000000pt" viewBox="0 0 128.000000 128.000000"
 preserveAspectRatio="xMidYMid meet">

<g transform="translate(0.000000,128.000000) scale(0.100000,-0.100000)"
fill="#267cb5" stroke="none">
<path d="M156 948 c-9 -5 -16 -6 -16 -1 0 4 -7 -2 -15 -14 -13 -19 -15 -75
-16 -370 0 -234 4 -349 11 -351 5 -2 7 -9 4 -14 -4 -6 -2 -8 4 -4 6 3 13 2 17
-4 3 -6 40 -9 83 -8 l77 2 -70 3 c-38 2 -74 8 -78 12 -4 4 41 58 100 118 179
182 205 216 160 208 -21 -4 -21 -4 -3 10 22 16 11 39 -15 32 -11 -3 -17 -1
-14 3 3 5 1 11 -5 15 -6 4 -8 11 -5 16 3 5 -1 6 -10 2 -12 -4 -13 -8 -5 -13 8
-5 7 -9 -5 -13 -9 -4 -14 -3 -10 3 3 6 -1 13 -10 16 -14 6 -14 8 2 19 17 12
16 14 -9 20 -15 4 -32 4 -39 0 -8 -5 -9 -1 -4 14 4 15 1 23 -10 27 -18 7 -64
44 -117 95 -34 33 -38 42 -38 88 0 81 14 86 227 84 95 -2 173 1 173 5 0 10
-345 11 -364 0z m9 -205 c27 -25 30 -35 30 -85 0 -31 3 -54 7 -52 4 2 9 0 13
-6 3 -5 2 -10 -3 -10 -18 0 -21 -29 -6 -45 14 -13 14 -18 2 -32 -11 -14 -11
-16 2 -8 13 8 13 7 1 -8 -13 -16 -9 -21 14 -18 6 1 2 -5 -7 -12 -10 -8 -18
-22 -18 -31 0 -19 4 -20 33 -5 22 11 22 11 0 -10 -26 -25 -27 -27 -11 -37 7
-5 8 -3 3 6 -6 9 -4 11 5 5 10 -6 8 -12 -8 -26 -26 -21 -29 -44 -5 -35 15 6
15 4 -2 -14 -10 -11 -14 -20 -10 -20 5 0 -8 -18 -30 -40 -21 -21 -42 -37 -47
-34 -10 7 -11 544 0 544 4 0 21 -12 37 -27z"/>
<path d="M645 949 c-23 -5 -18 -6 23 -7 28 0 52 1 52 3 0 7 -48 10 -75 4z"/>
<path d="M890 948 c-17 -4 -5 -7 35 -7 222 1 225 0 225 -83 0 -47 -3 -54 -43
-92 -24 -22 -101 -84 -171 -136 -70 -52 -142 -107 -159 -122 -39 -31 -191
-113 -181 -97 5 9 0 10 -17 6 -23 -6 -23 -5 -5 8 26 20 14 30 -16 14 -22 -12
-22 -11 -8 6 14 17 14 18 -9 6 -23 -13 -23 -12 -19 13 4 20 0 31 -16 41 -30
22 -43 18 -17 -4 l23 -20 -44 -48 c-24 -26 -65 -70 -93 -97 -27 -26 -43 -46
-35 -44 8 3 20 -2 27 -11 10 -13 14 -14 25 -3 11 11 10 12 -7 7 -15 -5 -17 -5
-6 3 11 7 23 6 41 -3 18 -9 30 -11 37 -4 5 5 24 14 42 19 33 9 33 9 15 -11
-17 -19 -17 -20 1 -13 12 5 16 4 12 -3 -7 -12 50 -2 73 12 9 5 11 4 6 -3 -9
-15 9 -15 36 -1 16 8 22 8 29 -2 6 -11 14 -11 39 -2 20 8 28 8 24 1 -4 -7 -2
-8 4 -4 19 12 53 16 47 5 -4 -5 28 -9 79 -9 47 0 86 2 86 4 0 3 -12 18 -28 35
-19 22 -31 28 -42 21 -9 -5 -19 -5 -27 2 -14 11 -8 28 10 28 7 0 6 -4 -3 -11
-10 -7 -11 -9 -2 -7 25 7 7 23 -25 23 -29 0 -31 1 -16 18 11 11 12 17 4 17 -7
0 -10 4 -6 9 7 12 -25 30 -43 24 -6 -3 -10 -8 -8 -11 2 -4 -9 -7 -25 -8 l-29
-1 22 19 c12 10 23 26 24 35 3 21 44 52 60 46 7 -2 22 0 33 6 28 15 37 -4 10
-22 -20 -15 -10 -35 11 -22 5 3 20 8 32 10 23 4 22 4 -2 -15 l-25 -19 24 6
c18 4 22 3 17 -6 -5 -8 -3 -12 5 -10 29 3 40 -1 32 -13 -15 -26 -12 -40 8 -35
16 4 19 2 13 -15 -5 -17 -3 -20 11 -14 13 5 16 2 11 -10 -4 -11 1 -18 14 -21
11 -3 18 -8 16 -12 -2 -3 21 -31 52 -61 50 -50 51 -46 6 17 -9 12 -16 42 -16
68 0 25 -4 45 -10 45 -7 0 -6 5 1 14 6 7 9 20 5 29 -3 8 0 18 6 22 8 5 8 11
-1 21 -6 7 -14 12 -18 10 -9 -6 -7 42 2 51 9 9 9 23 0 22 -23 -4 -25 3 -5 17
29 20 28 37 0 30 -13 -3 -17 -3 -10 0 6 3 10 9 7 14 -3 4 2 13 10 20 8 7 15
21 15 32 0 16 -3 17 -22 7 -13 -7 2 11 32 39 30 29 58 52 63 52 4 0 6 -124 5
-275 -2 -150 1 -270 5 -266 6 6 10 315 7 658 0 33 -5 45 -22 54 -24 13 -210
19 -248 7z m-390 -613 c0 -2 -10 -9 -22 -15 -22 -11 -22 -10 -4 4 21 17 26 19
26 11z m-53 -42 c0 -8 -6 -9 -19 -2 -10 5 -18 11 -18 12 0 2 8 3 18 3 10 0 19
-6 19 -13z m108 -3 c-3 -5 -12 -10 -18 -10 -7 0 -6 4 3 10 19 12 23 12 15 0z"/>
<path d="M548 943 c12 -2 32 -2 45 0 12 2 2 4 -23 4 -25 0 -35 -2 -22 -4z"/>
<path d="M768 943 c12 -2 32 -2 45 0 12 2 2 4 -23 4 -25 0 -35 -2 -22 -4z"/>
<path d="M196 861 c-9 -14 2 -33 15 -26 5 4 9 -4 9 -15 0 -16 4 -20 16 -16 12
4 15 2 10 -9 -4 -12 0 -14 20 -11 22 4 24 3 13 -10 -10 -12 -9 -13 6 -8 12 5
16 4 11 -4 -3 -6 -1 -14 5 -18 7 -4 9 -3 6 3 -4 6 -1 13 6 16 16 6 48 -6 50
-18 1 -6 8 -9 14 -9 7 1 10 -3 7 -8 -4 -6 7 -7 27 -4 l34 5 -25 -19 c-14 -11
-29 -20 -35 -20 -5 0 0 -7 13 -15 19 -14 25 -14 54 0 29 14 31 14 14 0 -11 -8
-15 -16 -8 -16 26 -3 31 -4 39 -12 4 -5 3 -8 -2 -7 -22 5 -36 -1 -29 -11 4 -8
9 -7 15 2 5 8 9 11 9 6 0 -4 18 2 40 13 24 12 40 16 40 9 0 -6 7 -8 16 -5 9 3
12 2 9 -5 -4 -5 -14 -8 -23 -5 -10 3 -27 -3 -40 -12 -21 -17 -22 -18 -3 -18
11 0 19 4 18 9 -1 5 4 12 12 15 8 2 11 0 7 -6 -4 -6 2 -8 16 -5 23 5 22 4 -2
-16 l-25 -21 28 10 c15 5 41 17 57 25 29 15 30 15 27 -6 -2 -12 -22 -32 -51
-48 -40 -23 -45 -30 -32 -40 12 -10 21 -9 48 4 l33 16 -25 -20 -25 -21 25 0
c15 0 51 20 90 51 36 28 116 90 179 136 63 47 126 97 140 110 25 24 25 25 3
13 -13 -6 -26 -9 -29 -6 -3 3 -18 -1 -34 -10 -16 -8 -29 -10 -29 -5 0 6 9 15
20 21 11 6 20 15 20 21 0 6 -21 -1 -46 -16 -26 -15 -44 -22 -40 -16 12 19 16
52 5 46 -5 -4 -7 -10 -4 -15 3 -4 -2 -11 -11 -14 -8 -3 -12 -2 -9 4 3 6 -1 7
-9 4 -9 -3 -14 -9 -12 -13 3 -4 -4 -7 -15 -7 -25 0 -24 12 1 26 11 6 18 15 15
21 -4 6 -13 5 -25 -1 -10 -5 -25 -7 -33 -4 -8 3 -35 -4 -59 -16 -39 -19 -35
-10 8 16 15 9 10 11 -25 12 -28 1 -55 -5 -76 -18 -24 -15 -34 -17 -43 -8 -9 9
-18 9 -37 0 -15 -7 -24 -8 -21 -3 9 14 -16 20 -38 8 -15 -7 -18 -6 -14 5 4 9
-1 14 -12 14 -10 0 -16 -4 -13 -9 3 -5 -4 -4 -16 2 -16 9 -27 8 -51 -4 -26
-13 -29 -13 -24 0 7 18 8 18 -34 6 -21 -6 -30 -6 -26 0 3 6 -5 7 -22 3 -30 -8
-32 -8 -80 2 -19 3 -34 1 -38 -5z m824 -56 c0 -2 -10 -9 -22 -15 -22 -11 -22
-10 -4 4 21 17 26 19 26 11z"/>
<path d="M630 600 c-8 -5 -10 -10 -5 -10 6 0 17 5 25 10 8 5 11 10 5 10 -5 0
-17 -5 -25 -10z"/>
<path d="M1130 200 c-13 -8 -12 -10 3 -10 9 0 17 5 17 10 0 12 -1 12 -20 0z"/>
<path d="M348 188 c-13 -3 29 -6 92 -5 114 0 112 4 -7 9 -35 2 -73 0 -85 -4z"/>
<path d="M593 183 c9 -2 23 -2 30 0 6 3 -1 5 -18 5 -16 0 -22 -2 -12 -5z"/>
<path d="M678 183 c7 -3 16 -2 19 1 4 3 -2 6 -13 5 -11 0 -14 -3 -6 -6z"/>
<path d="M733 183 c15 -2 39 -2 55 0 15 2 2 4 -28 4 -30 0 -43 -2 -27 -4z"/>
<path d="M868 183 c17 -2 47 -2 65 0 17 2 3 4 -33 4 -36 0 -50 -2 -32 -4z"/>
<path d="M1018 183 c18 -2 45 -2 60 0 15 2 0 4 -33 4 -33 0 -45 -2 -27 -4z"/>
<path d="M290 145 c-43 -17 -60 -18 -40 -4 11 8 7 9 -15 3 -16 -4 -55 -9 -85
-10 -76 -4 -90 -6 -90 -16 0 -4 0 -11 0 -15 0 -4 13 -7 30 -7 16 1 29 -1 28
-5 -2 -18 4 -21 23 -10 16 8 23 8 28 0 5 -7 17 -8 39 -2 18 6 30 6 27 1 -6 -9
101 -4 117 6 7 4 8 2 4 -4 -9 -15 19 -16 46 -1 15 8 19 8 14 0 -9 -14 -1 -14
44 -1 32 9 33 8 16 -5 -18 -14 -16 -15 27 -15 28 0 59 7 75 17 21 14 24 14 15
2 -10 -13 -5 -15 37 -16 27 -1 52 2 55 7 3 6 13 10 21 10 9 0 12 -5 8 -12 -5
-8 -2 -9 12 -3 10 4 30 7 44 5 31 -2 33 -2 92 3 26 2 45 0 42 -4 -8 -13 64
-11 88 2 15 8 19 8 14 0 -9 -14 -1 -14 57 4 26 8 47 10 47 5 0 -8 22 -7 70 3
46 9 48 40 2 35 -17 -2 -26 2 -25 10 4 15 -22 16 -50 0 -20 -10 -21 -10 -9 5
12 14 10 16 -25 12 -38 -3 -75 -9 -103 -16 -8 -2 -14 2 -12 9 3 15 -3 15 -28
2 -13 -7 -21 -7 -25 0 -4 7 -13 6 -27 -1 -15 -8 -19 -8 -14 0 9 14 0 14 -26 0
-17 -9 -20 -9 -16 2 4 11 -6 14 -48 13 -29 -1 -58 -5 -65 -10 -8 -4 -10 -3 -5
4 11 18 -75 15 -101 -3 -13 -9 -24 -11 -28 -6 -3 6 -18 10 -33 10 -15 0 -34 1
-42 1 -8 1 -26 -2 -39 -6 -14 -4 -22 -3 -18 2 3 5 -3 10 -13 10 -10 0 -16 -4
-13 -9 3 -5 -4 -4 -16 2 -16 9 -28 8 -52 -5 -29 -15 -31 -15 -26 0 4 9 5 16 4
15 -1 0 -18 -7 -37 -14z"/>
</g>
</svg>
