<?xml version="1.0" standalone="no"?>
<!DOCTYPE svg PUBLIC "-//W3C//DTD SVG 20010904//EN"
 "http://www.w3.org/TR/2001/REC-SVG-20010904/DTD/svg10.dtd">
<svg version="1.0" xmlns="http://www.w3.org/2000/svg"
 width="128.000000pt" height="128.000000pt" viewBox="0 0 128.000000 128.000000"
 preserveAspectRatio="xMidYMid meet">

<g transform="translate(0.000000,128.000000) scale(0.100000,-0.100000)"
fill="#267cb5" stroke="none">
<path d="M681 1191 c31 -16 97 -56 147 -90 50 -34 94 -61 97 -61 10 0 182
-109 194 -124 18 -21 -18 -53 -53 -47 -4 1 -25 -4 -45 -11 -20 -6 -42 -11 -50
-9 -8 1 -10 -2 -5 -10 4 -8 3 -10 -4 -5 -17 10 -15 15 19 47 34 32 25 37 -24
13 l-32 -16 30 27 c23 20 25 24 7 15 -12 -6 -27 -8 -32 -5 -5 3 -19 1 -31 -5
-33 -18 -33 -4 1 17 28 18 30 21 14 33 -14 12 -24 10 -76 -17 -59 -31 -60 -31
-37 -6 l24 26 -32 -17 c-47 -23 -41 -4 8 28 31 21 38 30 29 41 -11 14 -72 27
-64 14 2 -5 -10 -15 -28 -24 l-33 -16 25 21 25 20 -50 -20 c-37 -14 -44 -15
-27 -4 12 9 22 23 22 31 0 8 5 11 12 7 6 -4 8 -3 4 4 -4 8 -17 7 -41 -4 -51
-21 -54 -17 -12 12 49 33 41 43 -10 12 -65 -41 -63 -40 -56 -22 5 14 3 16 -13
11 -19 -7 -19 -7 0 8 11 8 25 15 30 15 6 0 4 -5 -4 -11 -13 -9 -13 -10 0 -6 8
2 15 10 15 17 0 7 6 15 14 18 9 3 11 0 6 -9 -5 -8 -4 -10 0 -6 10 8 16 37 9
37 -19 0 -392 -212 -442 -251 -22 -17 -23 -17 -50 8 l-27 25 27 21 c15 12 96
64 181 115 84 51 171 109 193 129 42 38 35 35 -89 -44 -42 -26 -132 -82 -199
-124 -68 -42 -122 -82 -120 -88 1 -6 -2 -11 -8 -11 -6 0 -10 -128 -10 -365 0
-237 4 -365 10 -365 16 0 11 -28 -6 -38 -9 -5 -25 -7 -34 -5 -10 3 -20 0 -24
-5 -3 -5 5 -13 19 -16 14 -4 25 -11 25 -16 0 -6 18 -8 41 -5 23 3 38 2 35 -4
-5 -8 117 -7 200 2 25 2 31 0 26 -11 -4 -12 1 -14 24 -8 28 7 39 7 67 5 6 -1
21 2 31 7 14 5 17 4 12 -5 -9 -14 43 -10 88 8 23 9 27 9 23 -2 -4 -10 25 -13
142 -12 80 0 152 4 160 9 10 7 12 6 6 -3 -6 -10 -3 -11 11 -3 26 14 84 22 84
12 0 -12 124 -4 150 10 25 14 26 30 1 30 -11 0 -22 4 -26 10 -3 6 -15 5 -30
-2 -30 -14 -43 -4 -24 18 12 15 10 15 -24 0 -21 -8 -35 -11 -33 -7 7 10 -279
6 -311 -4 -14 -4 -23 -3 -23 3 0 16 -35 20 -66 7 -19 -8 -35 -9 -48 -3 -10 6
-16 6 -13 1 3 -5 -3 -9 -13 -9 -10 0 -16 4 -13 9 3 5 -12 6 -33 3 -70 -11
-104 -13 -104 -5 0 10 -202 5 -219 -6 -10 -5 -12 -4 -7 4 5 8 -4 10 -34 6 -37
-4 -40 -3 -31 13 5 10 67 77 138 149 70 71 148 151 173 178 l45 48 -48 -26
c-26 -14 -45 -22 -42 -16 4 5 0 9 -7 9 -8 1 -7 4 4 10 25 15 16 46 -13 42 -22
-2 -23 -1 -7 11 16 13 16 15 -7 27 -13 7 -22 18 -18 23 3 6 1 7 -5 3 -7 -4
-12 -3 -12 2 0 6 -7 13 -16 16 -9 4 -13 2 -8 -5 4 -8 0 -8 -14 0 -13 7 -19 17
-16 26 4 9 -3 16 -20 21 -14 3 -23 10 -20 15 3 5 0 9 -7 9 -6 0 -18 8 -25 17
-7 10 -15 15 -19 11 -10 -10 -13 -68 -3 -68 4 0 3 -12 -3 -27 -7 -20 -7 -28 3
-34 17 -11 17 -30 0 -51 -8 -10 -10 -18 -3 -22 6 -4 8 -13 5 -20 -3 -7 2 -19
11 -26 12 -10 13 -16 3 -27 -7 -8 -13 -21 -14 -27 -2 -12 4 -14 47 -18 21 -2
21 -3 3 -15 -46 -30 -59 -44 -46 -50 10 -4 10 -8 0 -21 -11 -14 -10 -15 7 -9
19 7 19 7 1 -8 -11 -8 -17 -22 -13 -34 3 -13 -7 -31 -33 -56 -21 -20 -40 -33
-43 -28 -8 12 -8 673 -1 684 3 5 17 1 32 -9 26 -17 75 -25 66 -10 -7 10 48 36
65 30 10 -3 11 0 5 9 -6 11 -5 12 8 2 8 -7 18 -10 21 -6 4 3 7 4 7 0 0 -3 -25
-20 -55 -37 -30 -17 -55 -33 -55 -35 0 -6 30 6 68 27 32 18 33 18 22 -2 -6
-11 -8 -21 -5 -21 21 -5 33 -4 50 4 20 10 20 10 1 -12 -11 -11 -15 -21 -11
-21 4 0 0 -9 -10 -20 -17 -19 -17 -22 -3 -36 14 -14 21 -13 77 15 33 17 61 27
61 21 0 -5 -13 -16 -30 -25 -46 -24 -36 -27 15 -5 25 11 45 18 45 16 0 -3 -23
-18 -51 -36 -50 -30 -51 -32 -31 -46 18 -13 25 -12 59 7 l38 21 -35 -30 c-31
-27 -33 -31 -17 -38 10 -4 23 -2 30 5 6 6 16 11 22 11 5 0 1 -7 -9 -15 -29
-22 -14 -27 28 -10 59 25 65 12 16 -34 -25 -22 -42 -41 -37 -41 4 0 27 18 50
40 39 35 106 73 93 51 -14 -22 31 -19 73 5 47 27 36 10 -19 -30 l-25 -18 24 5
c18 5 21 3 12 -6 -8 -8 1 -24 40 -63 47 -47 54 -51 77 -43 l26 10 -19 -22
c-17 -19 -17 -21 -3 -16 12 4 15 2 11 -9 -3 -9 2 -14 17 -14 11 0 19 -4 16 -9
-8 -12 19 -33 36 -29 7 1 13 -2 13 -7 0 -6 -6 -9 -14 -8 -8 1 5 -18 30 -42 24
-23 47 -41 51 -38 4 2 5 -3 2 -11 -4 -11 0 -16 10 -16 9 0 16 -5 16 -10 0 -13
91 -103 97 -97 2 3 -9 19 -24 37 -21 26 -27 43 -28 80 0 29 -4 46 -10 42 -5
-3 -4 2 4 11 9 12 10 17 2 17 -8 0 -9 6 -4 17 13 27 10 78 -4 78 -7 0 -12 5
-10 10 1 6 8 9 14 9 8 -1 10 4 5 15 -9 21 -8 53 3 70 5 10 4 16 -3 19 -6 2 -8
10 -5 19 5 12 3 14 -8 8 -8 -5 -7 -1 4 12 22 25 22 37 0 29 -16 -5 -16 -4 1 8
10 8 16 19 15 25 -2 5 -44 -13 -92 -41 -48 -27 -90 -48 -93 -46 -2 3 24 22 58
42 73 43 125 83 117 90 -14 15 -184 -110 -184 -135 0 -6 -21 -22 -47 -37 l-48
-27 -27 29 c-19 19 -24 30 -15 33 6 3 47 33 90 66 42 34 95 76 117 92 22 16
51 40 65 53 14 13 45 37 69 54 35 25 45 28 52 17 5 -8 8 -164 6 -347 -1 -223
1 -328 8 -319 12 17 13 674 1 699 -8 18 -23 28 -161 110 -44 26 -85 51 -90 55
-6 4 -26 17 -45 27 -19 11 -71 44 -114 73 -44 29 -89 53 -100 53 -13 -1 0 -11
35 -29z m229 -235 c0 -2 -7 -7 -16 -10 -8 -3 -12 -2 -9 4 6 10 25 14 25 6z
m-85 -446 c-3 -5 -12 -10 -18 -10 -7 0 -6 4 3 10 19 12 23 12 15 0z m-575 -96
c0 -2 -9 0 -20 6 -11 6 -20 13 -20 16 0 2 9 0 20 -6 11 -6 20 -13 20 -16z
m715 -44 c-3 -5 -12 -10 -18 -10 -7 0 -6 4 3 10 19 12 23 12 15 0z"/>
<path d="M564 1094 c-18 -14 -18 -15 4 -4 12 6 22 13 22 15 0 8 -5 6 -26 -11z"/>
<path d="M935 930 c-3 -6 1 -7 9 -4 18 7 21 14 7 14 -6 0 -13 -4 -16 -10z"/>
<path d="M254 864 c-18 -14 -18 -15 4 -4 12 6 22 13 22 15 0 8 -5 6 -26 -11z"/>
<path d="M315 780 c-3 -6 1 -7 9 -4 18 7 21 14 7 14 -6 0 -13 -4 -16 -10z"/>
<path d="M594 526 c-55 -67 -122 -142 -142 -160 -73 -65 -95 -88 -74 -77 18
10 22 9 22 -3 0 -9 -9 -20 -20 -26 -11 -6 -20 -18 -20 -26 0 -13 9 -11 45 10
25 15 45 23 45 19 0 -4 5 -1 11 7 9 12 10 11 6 -7 -3 -13 0 -26 5 -30 7 -3 8
-1 4 5 -4 7 -4 12 1 13 4 0 18 2 31 3 14 2 21 -2 18 -9 -5 -13 34 -12 55 1 8
4 9 3 5 -4 -10 -16 -1 -15 37 4 l32 15 -25 -21 -25 -21 53 20 c49 18 56 18 53
-1 -1 -11 13 -10 44 2 19 7 24 7 19 -1 -5 -9 6 -10 39 -7 26 3 45 3 43 -1 -2
-3 21 -4 51 -3 l55 4 -21 19 c-12 11 -26 17 -31 14 -6 -4 -10 -3 -9 2 4 25 -3
35 -20 30 -14 -3 -18 -1 -14 9 6 16 -5 18 -27 5 -23 -15 -33 -1 -14 20 26 29
5 45 -33 25 -23 -11 -30 -12 -30 -2 0 7 7 13 15 12 8 0 16 7 17 16 3 14 0 15
-16 5 -14 -9 -21 -9 -31 2 -11 11 -10 12 1 6 10 -6 12 -4 6 5 -6 10 -4 12 11
6 14 -5 16 -4 8 4 -9 9 -17 9 -34 0 -18 -10 -19 -14 -8 -28 9 -12 5 -11 -12 3
-14 11 -27 21 -28 22 -2 1 11 9 29 18 23 13 28 19 19 25 -9 5 -30 -1 -57 -17
-35 -20 -43 -22 -43 -9 0 8 9 20 20 26 11 6 17 16 14 22 -5 7 -2 9 8 6 8 -4
15 -1 15 6 0 7 -10 11 -21 10 -12 -1 -25 -3 -30 -3 -6 -1 -2 -7 8 -14 16 -12
16 -13 -2 -13 -21 0 -22 10 -5 42 23 40 -22 58 -53 20z m236 -171 c0 -2 -10
-10 -22 -16 -21 -11 -22 -11 -9 4 13 16 31 23 31 12z"/>
</g>
</svg>
